Coordinates
version=1
nRows=11
nColumns=46
inDegrees=yes

Units are S.I. units (second, meters, Newtons, ...)
Angles are in degrees.

endheader
time	pelvis_tilt	pelvis_list	pelvis_rotation	pelvis_tx	pelvis_ty	pelvis_tz	bb_angle	bb_tx	bb_ty	bb_tz	hip_flexion_r	hip_adduction_r	hip_rotation_r	knee_angle_r	knee_angle_r_beta	ankle_angle_r	subtalar_angle_r	mtp_angle_r	crank_angle_r	hip_flexion_l	hip_adduction_l	hip_rotation_l	knee_angle_l	knee_angle_l_beta	ankle_angle_l	subtalar_angle_l	mtp_angle_l	crank_angle_l	lumbar_extension	lumbar_bending	lumbar_rotation	arm_flex_r	arm_add_r	arm_rot_r	elbow_flex_r	pro_sup_r	wrist_flex_r	wrist_dev_r	arm_flex_l	arm_add_l	arm_rot_l	elbow_flex_l	pro_sup_l	wrist_flex_l	wrist_dev_l
      2.50000000	    -13.72560803	      3.38658462	      4.85391464	      0.12716889	      1.15536663	     -0.25138564	      0.00000000	      0.50000000	      0.00000000	      0.25000000	     46.61064623	     -8.28803870	     -3.23075125	     42.53440583	      0.74236543	     -9.06460944	     -6.98968921	      0.00000000	      0.00000000	     86.67256664	     -4.60680953	      0.90806980	    112.91614466	      1.97075850	      0.69191483	     -0.82731945	      0.00000000	      0.00000000	    -57.85555289	     -0.71409352	     -4.50362794	     89.68147747	     -4.74055433	     25.65370358	     39.36439613	     26.04105797	      0.00000000	      0.00000000	     89.55930210	    -11.93098280	     33.16547093	     44.67786244	     30.37822688	      0.00000000	      0.00000000
      2.50500000	    -13.60613489	      3.56467544	      4.93931809	      0.12738778	      1.15581263	     -0.25058514	      0.00000000	      0.50000000	      0.00000000	      0.25000000	     46.42035631	     -8.58022256	     -3.54477590	     42.85821834	      0.74801702	     -9.78669990	     -7.11145398	      0.00000000	      0.00000000	     86.80863606	     -4.53601341	      0.80058200	    112.77168983	      1.96823729	      0.98886066	     -0.45995021	      0.00000000	      0.00000000	    -58.27186188	     -1.02460031	     -5.05286753	     89.67654528	     -4.44936478	     24.92452439	     39.48858437	     27.10422143	      0.00000000	      0.00000000	     89.52908571	    -12.84110147	     33.13681752	     46.37083104	     31.48092461	      0.00000000	      0.00000000
      2.51000000	    -13.38568032	      3.62638167	      5.08293932	      0.12762185	      1.15640551	     -0.24993632	      0.00000000	      0.50000000	      0.00000000	      0.25000000	     46.06929530	     -8.81891300	     -3.97362351	     43.14035797	      0.75294129	    -10.26189377	     -7.08580724	      0.00000000	      0.00000000	     86.85608064	     -4.41599699	      0.80369371	    112.61313448	      1.96546998	      1.24861785	     -0.36249858	      0.00000000	      0.00000000	    -58.76641588	     -1.23279940	     -5.37639924	     89.66698251	     -4.42924453	     24.21712150	     39.82544774	     28.15784348	      0.00000000	      0.00000000	     89.52693706	    -13.15304836	     32.80575087	     47.36300219	     32.41254446	      0.00000000	      0.00000000
      2.51500000	    -13.24953901	      3.64650879	      5.24052612	      0.12779964	      1.15673868	     -0.24936747	      0.00000000	      0.50000000	      0.00000000	      0.25000000	     45.86877953	     -9.00400970	     -4.25260334	     43.51930975	      0.75955524	    -10.79347496	     -7.07263124	      0.00000000	      0.00000000	     86.99156863	     -4.30450036	      0.82427170	    112.45919911	      1.96278330	      1.60840562	     -0.23168828	      0.00000000	      0.00000000	    -59.13062764	     -1.35581257	     -5.62810185	     89.65909030	     -4.41888902	     23.75919770	     40.05672954	     29.01874999	      0.00000000	      0.00000000	     89.52400449	    -13.41531689	     32.50637423	     48.15375324	     33.16398839	      0.00000000	      0.00000000
      2.52000000	    -13.13613728	      3.67252478	      5.38260393	      0.12800232	      1.15709204	     -0.24870919	      0.00000000	      0.50000000	      0.00000000	      0.25000000	     45.72331030	     -9.18271084	     -4.56724612	     43.93861991	      0.76687359	    -11.36221050	     -7.12838016	      0.00000000	      0.00000000	     87.09974284	     -4.22292626	      0.83862395	    112.25728374	      1.95925921	      1.98647577	      0.02019941	      0.00000000	      0.00000000	    -59.43100923	     -1.56798591	     -5.94995654	     89.65626186	     -4.36396035	     23.56023532	     39.93431156	     29.72038419	      0.00000000	      0.00000000	     89.54295830	    -13.70758489	     32.50556147	     48.73482106	     33.80231237	      0.00000000	      0.00000000
      2.52500000	    -13.23655039	      3.65301360	      5.40005709	      0.12815216	      1.15661216	     -0.24781566	      0.00000000	      0.50000000	      0.00000000	      0.25000000	     45.94660186	     -9.21406499	     -4.66976513	     44.56975451	      0.77788896	    -11.81996135	     -7.20314919	      0.00000000	      0.00000000	     87.47637500	     -4.30661929	      0.88496267	    112.11147078	      1.95671429	      2.41465601	      0.38736906	      0.00000000	      0.00000000	    -59.41415150	     -1.85225344	     -6.27872951	     89.65660107	     -4.25552572	     23.82820462	     39.51995381	     30.20375846	      0.00000000	      0.00000000	     89.55344771	    -14.27372589	     32.97489835	     49.22606227	     34.27763562	      0.00000000	      0.00000000
      2.53000000	    -13.07203145	      3.67060333	      5.61418469	      0.12827845	      1.15707742	     -0.24740006	      0.00000000	      0.50000000	      0.00000000	      0.25000000	     45.77303525	     -9.45388312	     -5.00049470	     45.05527224	      0.78636285	    -12.30263856	     -7.25403739	      0.00000000	      0.00000000	     87.46223618	     -4.12402719	      0.88604038	    111.85326240	      1.95220771	      2.93145011	      0.52770703	      0.00000000	      0.00000000	    -59.85013905	     -1.92027739	     -6.56482297	     89.64802488	     -4.36140646	     23.60197697	     39.94896145	     30.91606493	      0.00000000	      0.00000000	     89.55755390	    -14.55867872	     32.67859290	     50.09763516	     34.87181305	      0.00000000	      0.00000000
      2.53500000	    -13.09308816	      3.67778369	      5.75044157	      0.12836947	      1.15696211	     -0.24690861	      0.00000000	      0.50000000	      0.00000000	      0.25000000	     45.91553702	     -9.61639503	     -5.18004870	     45.69809007	      0.79758213	    -12.89317056	     -7.42011272	      0.00000000	      0.00000000	     87.63896622	     -4.05499532	      0.88102343	    111.59863807	      1.94776367	      3.52528761	      0.87598977	      0.00000000	      0.00000000	    -60.00107184	     -2.06947654	     -6.93146533	     89.65094261	     -4.39746194	     23.94592901	     39.86202206	     31.40966508	      0.00000000	      0.00000000	     89.56125879	    -15.10895647	     32.90248467	     50.79727766	     35.31145709	      0.00000000	      0.00000000
      2.54000000	    -13.01477587	      3.67389516	      6.01670515	      0.12830069	      1.15718784	     -0.24666716	      0.00000000	      0.50000000	      0.00000000	      0.25000000	     45.92680965	     -9.88802639	     -5.49926296	     46.32417703	      0.80850941	    -13.59109046	     -7.42376019	      0.00000000	      0.00000000	     87.67133602	     -3.77992506	      0.90441623	    111.27809697	      1.94216918	      4.14655377	      0.91952457	      0.00000000	      0.00000000	    -60.38847614	     -2.08863883	     -7.24367410	     89.63963425	     -4.61802754	     23.69081687	     40.51195872	     32.05982152	      0.00000000	      0.00000000	     89.55954956	    -15.19299418	     32.33420442	     51.64556924	     35.80672668	      0.00000000	      0.00000000
      2.54500000	    -13.04563629	      3.68014058	      6.26031021	      0.12822395	      1.15714299	     -0.24633828	      0.00000000	      0.50000000	      0.00000000	      0.25000000	     46.09919159	    -10.12346161	     -5.71238992	     47.00115965	      0.82032499	    -14.29547382	     -7.66840271	      0.00000000	      0.00000000	     87.77401388	     -3.54388145	      0.91532925	    110.91327778	      1.93580188	      4.89022449	      1.22972315	      0.00000000	      0.00000000	    -60.58065069	     -2.13656372	     -7.54555327	     89.63804332	     -4.79650975	     23.85338496	     40.74237075	     32.51746955	      0.00000000	      0.00000000	     89.56828751	    -15.45980619	     32.23513720	     52.31275763	     36.18071163	      0.00000000	      0.00000000
      2.55000000	    -13.03677812	      3.65685791	      6.50541387	      0.12813773	      1.15720958	     -0.24615949	      0.00000000	      0.50000000	      0.00000000	      0.25000000	     46.23563879	    -10.36282172	     -5.99335315	     47.68224431	      0.83221216	    -14.98885917	     -7.75617478	      0.00000000	      0.00000000	     87.80753626	     -3.29389083	      0.92364506	    110.54181464	      1.92931863	      5.63878583	      1.30849419	      0.00000000	      0.00000000	    -60.88284699	     -2.14682308	     -7.81272629	     89.62878830	     -5.07591763	     23.76736220	     41.34502948	     33.12676930	      0.00000000	      0.00000000	     89.57282738	    -15.69558310	     31.87367274	     53.19009815	     36.65238415	      0.00000000	      0.00000000
